<?xml version="1.0" standalone="no"?>
<!DOCTYPE svg PUBLIC "-//W3C//DTD SVG 20010904//EN"
 "http://www.w3.org/TR/2001/REC-SVG-20010904/DTD/svg10.dtd">
<svg version="1.0" xmlns="http://www.w3.org/2000/svg"
 width="517.000000pt" height="469.000000pt" viewBox="0 0 517.000000 469.000000"
 preserveAspectRatio="xMidYMid meet">

<g transform="translate(0.000000,469.000000) scale(0.100000,-0.100000)"
fill="#000000" stroke="none">
<path d="M2337 4559 c-218 -23 -527 -113 -722 -211 -460 -231 -789 -565 -1005
-1021 -93 -197 -138 -349 -186 -632 -25 -144 -25 -478 -1 -640 27 -174 43
-246 83 -375 174 -554 553 -1007 1066 -1270 122 -63 272 -124 368 -151 41 -11
94 -27 117 -35 23 -7 106 -23 185 -34 244 -36 608 -25 808 24 97 24 274 77
285 85 5 4 33 16 60 26 148 54 401 204 551 326 224 183 424 431 553 685 28 56
51 105 51 108 0 3 11 29 24 58 22 50 83 235 105 323 48 186 74 577 52 762 -39
322 -104 551 -228 798 -329 658 -970 1103 -1692 1175 -118 11 -359 11 -474 -1z
m273 -628 c45 -23 77 -71 85 -124 5 -34 -3 -70 -40 -182 -117 -351 -179 -595
-224 -875 -47 -295 -47 -286 -18 -305 44 -28 62 -8 77 82 33 208 105 472 196
713 62 166 140 340 165 367 49 51 143 39 202 -26 60 -67 64 -111 20 -211 -77
-170 -178 -460 -227 -653 -40 -152 -86 -447 -86 -546 0 -56 -3 -66 -27 -88
-16 -14 -71 -44 -123 -67 -199 -90 -330 -192 -405 -317 -39 -63 -42 -80 -19
-103 30 -31 60 -20 107 41 106 138 255 247 373 273 64 15 96 6 150 -41 67 -58
80 -55 219 57 151 120 218 155 306 162 80 5 128 -9 169 -50 24 -24 30 -38 30
-72 0 -38 -7 -51 -63 -117 -35 -41 -157 -171 -271 -289 -114 -118 -240 -251
-279 -295 -151 -169 -281 -263 -443 -321 -126 -45 -228 -58 -349 -44 -188 20
-364 108 -506 249 -175 175 -257 381 -310 776 -17 123 -13 766 6 945 19 187
54 399 72 438 21 44 65 74 120 80 61 7 105 -17 129 -69 17 -38 17 -46 -1 -197
-10 -93 -20 -265 -23 -423 -4 -264 -4 -267 17 -278 26 -14 61 1 61 27 1 9 1
78 0 152 -2 294 62 695 166 1040 49 163 97 203 207 175 58 -15 82 -35 103 -90
18 -48 20 -35 -56 -350 -33 -135 -83 -436 -99 -595 -13 -125 -16 -293 -7 -309
4 -6 21 -11 37 -11 38 0 49 27 49 118 0 174 58 494 142 787 40 142 135 424
169 502 33 77 122 105 199 64z m1375 -1336 c50 -25 105 -79 130 -130 27 -54
28 -195 2 -242 -27 -51 -76 -101 -126 -131 -40 -24 -57 -27 -131 -27 -75 0
-91 3 -131 27 -93 55 -143 142 -142 248 1 114 54 199 155 250 56 28 70 31 133
28 42 -2 86 -12 110 -23z"/>
</g>
</svg>
